<svg width="32" height="32" viewBox="0 0 32 32" fill="none" xmlns="http://www.w3.org/2000/svg">
<path d="M13.2943 5C11.3969 5.50842 9.66669 6.50734 8.27767 7.89635C6.88865 9.28537 5.88973 11.0156 5.38131 12.913C4.8729 14.8104 4.8729 16.8083 5.38131 18.7057C5.88973 20.6031 6.88865 22.3333 8.27767 23.7223C9.66669 25.1114 11.3969 26.1103 13.2943 26.6187C15.1917 27.1271 17.1896 27.1271 19.087 26.6187C20.9844 26.1103 22.7146 25.1114 24.1036 23.7223C25.4927 22.3333 26.4916 20.6031 27 18.7057C27 18.7057 21.2773 20.896 16.1907 15.8093C11.104 10.7227 13.2943 5 13.2943 5Z" stroke="#2E4454" stroke-width="2" stroke-linecap="round" stroke-linejoin="round"/>
</svg>
